<svg xmlns="http://www.w3.org/2000/svg">
  <!-- Social Icons with Gold Theme -->
  <symbol id="github-icon" viewBox="0 0 24 24">
    <path fill="#D4AF37" d="M12 2C6.477 2 2 6.477 2 12c0 4.42 2.865 8.167 6.839 9.49.5.092.682-.217.682-.482v-1.703c-2.782.604-3.369-1.34-3.369-1.34-.454-1.156-1.11-1.463-1.11-1.463-.908-.62.069-.608.069-.608 1.003.07 1.531 1.03 1.531 1.03.892 1.529 2.341 1.087 2.91.832.092-.647.35-1.088.636-1.338-2.22-.253-4.555-1.11-4.555-4.943 0-1.091.39-1.984 1.03-2.683-.103-.253-.446-1.27.098-2.647 0 0 .84-.269 2.75 1.025A9.578 9.578 0 0112 6.836c.85.004 1.705.114 2.504.336 1.909-1.294 2.747-1.025 2.747-1.025.546 1.377.202 2.394.1 2.647.64.699 1.028 1.592 1.028 2.683 0 3.842-2.339 4.687-4.566 4.935.359.309.678.92.678 1.852v2.744c0 .27.18.58.688.482C19.138 20.161 22 16.416 22 12c0-5.523-4.477-10-10-10z"/>
  </symbol>
  
  <symbol id="x-icon" viewBox="0 0 24 24">
    <path fill="#D4AF37" d="M18.244 2.25h3.308l-7.227 8.26 8.502 11.24H16.17l-5.214-6.817L4.99 21.75H1.68l7.73-8.835L1.25 2.25h6.663l4.715 6.233 5.616-6.233zm-1.161 17.52h1.833L7.084 4.126H5.117L17.083 19.77z"/>
  </symbol>

  <symbol id="discord-icon" viewBox="0 0 24 24">
    <path fill="#D4AF37" d="M20.317 4.37a19.791 19.791 0 0 0-4.885-1.515.074.074 0 0 0-.079.037c-.21.375-.444.864-.608 1.25a18.27 18.27 0 0 0-5.487 0 12.64 12.64 0 0 0-.617-1.25.077.077 0 0 0-.079-.037A19.736 19.736 0 0 0 3.677 4.37a.07.07 0 0 0-.032.027C.533 9.046-.32 13.58.099 18.057a.082.082 0 0 0 .031.057 19.9 19.9 0 0 0 5.993 3.03.078.078 0 0 0 .084-.028 14.09 14.09 0 0 0 1.226-1.994.076.076 0 0 0-.041-.106 13.107 13.107 0 0 1-1.872-.892.077.077 0 0 1-.008-.128c.125-.094.252-.192.37-.294a.077.077 0 0 1 .081-.01c3.927 1.795 8.16 1.795 12.046 0a.077.077 0 0 1 .081.01c.118.102.245.2.37.294a.077.077 0 0 1-.009.128 12.51 12.51 0 0 1-1.873.892.077.077 0 0 0-.041.107c.36.698.772 1.362 1.225 1.993a.076.076 0 0 0 .084.028 19.839 19.839 0 0 0 6.002-3.03.077.077 0 0 0 .032-.054c.5-5.177-.838-9.674-3.549-13.66a.06.06 0 0 0-.031-.03zM8.02 15.33c-1.183 0-2.157-1.085-2.157-2.419 0-1.333.955-2.419 2.157-2.419 1.21 0 2.176 1.096 2.157 2.42 0 1.333-.956 2.419-2.157 2.419zm7.975 0c-1.183 0-2.157-1.085-2.157-2.419 0-1.333.955-2.419 2.157-2.419 1.21 0 2.176 1.096 2.157 2.42 0 1.333-.946 2.419-2.157 2.419z"/>
  </symbol>
</svg>
